<?xml version="1.0" encoding="utf-8"?>
<!-- Generator: Adobe Illustrator 13.0.0, SVG Export Plug-In . SVG Version: 6.00 Build 14948)  -->
<!DOCTYPE svg PUBLIC "-//W3C//DTD SVG 1.1//EN" "http://www.w3.org/Graphics/SVG/1.1/DTD/svg11.dtd">
<svg version="1.1" id="Layer_1" xmlns="http://www.w3.org/2000/svg" xmlns:xlink="http://www.w3.org/1999/xlink" x="0px" y="0px"
	 width="348.026px" height="198.425px" viewBox="0 0 348.026 198.425" enable-background="new 0 0 348.026 198.425"
	 xml:space="preserve">
<g>
	<defs>
		<rect id="SVGID_1_" width="348.026" height="198.425"/>
	</defs>
	<clipPath id="SVGID_2_">
		<use xlink:href="#SVGID_1_"  overflow="visible"/>
	</clipPath>
	<path clip-path="url(#SVGID_2_)" fill="#00AAE5" d="M207.381,100.227c0,49.486-40.122,89.596-89.602,89.596
		c-49.476,0-89.597-40.109-89.597-89.596c0-49.483,40.121-89.595,89.597-89.595C167.259,10.632,207.381,50.744,207.381,100.227"/>
	<path clip-path="url(#SVGID_2_)" fill="#006E9E" d="M71.432,100.217c0-41.388,27.526-76.329,65.275-87.565
		c-6.101-1.313-12.425-2.02-18.919-2.02c-49.491,0-89.603,40.097-89.603,89.585c0,49.491,40.112,89.605,89.603,89.605
		c6.489,0,12.818-0.705,18.914-2.018C98.958,176.565,71.432,141.619,71.432,100.217"/>
	<path clip-path="url(#SVGID_2_)" fill="#FFFFFF" d="M85.971,85.636c1.823-1.823,3.879-3.188,6.171-4.1s4.623-1.366,7-1.366
		c2.375,0,4.708,0.454,6.998,1.366c2.292,0.912,4.349,2.277,6.171,4.1l2.572,2.569l-5.139,5.216l-2.649-2.566
		c-1.105-1.104-2.348-1.933-3.728-2.487c-1.381-0.549-2.788-0.826-4.225-0.826c-1.436,0-2.843,0.277-4.224,0.826
		c-1.383,0.554-2.623,1.383-3.726,2.487c-1.108,1.05-1.935,2.265-2.487,3.645c-0.551,1.381-0.828,2.791-0.828,4.222
		c0,1.439,0.277,2.849,0.828,4.226c0.552,1.382,1.379,2.625,2.487,3.73c2.205,2.207,4.856,3.314,7.95,3.314
		c1.493,0,2.927-0.276,4.308-0.831c1.38-0.554,2.595-1.38,3.645-2.483l2.649-2.567l5.139,5.216l-2.572,2.572
		c-1.822,1.822-3.879,3.184-6.171,4.098c-2.29,0.908-4.623,1.366-6.998,1.366c-2.377,0-4.708-0.458-7-1.366
		c-2.292-0.914-4.348-2.275-6.171-4.098c-1.823-1.824-3.177-3.869-4.059-6.135c-0.884-2.264-1.324-4.597-1.324-6.998
		c0-2.401,0.44-4.734,1.324-7C82.794,89.503,84.148,87.456,85.971,85.636"/>
	<path clip-path="url(#SVGID_2_)" fill="#FFFFFF" d="M148.515,104.273l5.216,5.219l-2.572,2.571
		c-1.765,1.765-3.782,3.116-6.042,4.054c-2.27,0.943-4.638,1.41-7.127,1.41c-2.483,0-4.86-0.467-7.121-1.41
		c-2.27-0.938-4.283-2.289-6.047-4.054c-1.823-1.823-3.18-3.884-4.059-6.174c-0.885-2.29-1.328-4.626-1.328-7
		c0-2.372,0.443-4.694,1.328-6.956c0.879-2.268,2.236-4.31,4.059-6.133c1.818-1.822,3.879-3.189,6.168-4.1
		c2.29-0.912,4.623-1.366,7-1.366s4.711,0.454,7,1.366c2.29,0.911,4.346,2.278,6.169,4.1l2.572,2.567l-20.626,20.628
		c2.095,1.05,4.317,1.395,6.664,1.035c2.348-0.359,4.405-1.424,6.174-3.189L148.515,104.273z M130.038,90.937
		c-2.212,2.207-3.311,4.861-3.311,7.953c0,1.713,0.384,3.338,1.158,4.885c0.666-0.661,1.672-1.67,3.028-3.021
		c1.347-1.354,2.785-2.79,4.302-4.31c1.521-1.516,2.98-2.965,4.389-4.345c1.41-1.383,2.499-2.457,3.272-3.233
		c-2.101-1.048-4.317-1.41-6.665-1.077C133.863,88.12,131.807,89.17,130.038,90.937"/>
	<path clip-path="url(#SVGID_2_)" fill="#FFFFFF" d="M157.867,98.89c0-2.596,0.481-5.009,1.454-7.248
		c0.962-2.238,2.29-4.195,3.972-5.882c1.686-1.684,3.66-3.009,5.926-3.976c2.264-0.965,4.661-1.449,7.209-1.449
		c2.595,0,5.006,0.484,7.248,1.449c2.229,0.967,4.204,2.292,5.92,3.976c1.706,1.687,3.047,3.644,4.014,5.882
		c0.97,2.239,1.453,4.652,1.453,7.248c0,2.54-0.483,4.944-1.453,7.209c-0.967,2.261-2.308,4.254-4.014,5.965
		c-1.716,1.706-3.69,3.048-5.92,4.014c-2.242,0.969-4.653,1.45-7.248,1.45c-2.548,0-4.945-0.481-7.209-1.45
		c-2.266-0.966-4.24-2.308-5.926-4.014c-1.682-1.711-3.01-3.704-3.972-5.965C158.348,103.834,157.867,101.43,157.867,98.89
		 M165.159,98.89c0,1.546,0.292,3.012,0.87,4.39c0.584,1.381,1.376,2.586,2.406,3.606c1.022,1.021,2.217,1.817,3.603,2.4
		c1.376,0.575,2.844,0.867,4.39,0.867c1.545,0,3.003-0.292,4.389-0.867c1.375-0.583,2.581-1.379,3.603-2.4
		c1.02-1.021,1.823-2.226,2.4-3.606c0.578-1.378,0.87-2.844,0.87-4.39s-0.292-2.994-0.87-4.348c-0.577-1.354-1.381-2.543-2.4-3.563
		c-1.021-1.021-2.228-1.823-3.603-2.4c-1.386-0.583-2.844-0.87-4.389-0.87c-1.546,0-3.014,0.287-4.39,0.87
		c-1.386,0.577-2.581,1.379-3.603,2.4c-1.03,1.02-1.822,2.209-2.406,3.563C165.451,95.896,165.159,97.344,165.159,98.89"/>
	<path clip-path="url(#SVGID_2_)" fill="#00B8F1" d="M214.823,97.049h2.217h2.219v5.003c0.416-0.842,0.808-1.579,1.304-2.172
		c1.826-2.349,4.696-3.575,8.597-3.711v4.669c-2.961,0.223-5.283,1.2-7.045,2.909c-1.865,1.931-2.83,4.67-2.83,8.23v19.8h-2.231
		h-2.229V97.049z"/>
	<path clip-path="url(#SVGID_2_)" fill="#00B8F1" d="M236.202,97.049h2.19h2.245v5.003c0.378-0.842,0.822-1.579,1.291-2.172
		c1.839-2.349,4.709-3.575,8.634-3.711v4.669c-2.985,0.223-5.319,1.2-7.056,2.909c-1.916,1.931-2.856,4.67-2.856,8.23v19.8h-2.219
		h-2.229V97.049z"/>
	<path clip-path="url(#SVGID_2_)" fill="#00B8F1" d="M254.92,84.853h2.205h2.244v16.664l0.679-0.835
		c2.438-3.013,5.829-4.513,10.135-4.513c4.787,0,8.53,1.474,11.218,4.421c2.7,2.942,4.03,7.058,4.03,12.321v18.867h-2.242h-2.231
		v-18.984c0-3.959-0.938-7.031-2.871-9.262c-1.864-2.23-4.524-3.34-7.903-3.34c-3.469,0-6.146,1.129-7.996,3.379
		c-1.879,2.263-2.817,5.484-2.817,9.691v18.516h-2.244h-2.205V84.853z"/>
	<path clip-path="url(#SVGID_2_)" fill="#00B8F1" d="M292.814,84.853h2.23h2.243v16.664l0.666-0.835
		c2.438-3.013,5.83-4.513,10.134-4.513c4.776,0,8.532,1.474,11.219,4.421c2.674,2.942,4.019,7.058,4.019,12.321v18.867h-2.244
		h-2.204v-18.984c0-3.959-0.966-7.031-2.871-9.262c-1.89-2.23-4.539-3.34-7.918-3.34c-3.468,0-6.156,1.129-8.021,3.379
		c-1.865,2.263-2.779,5.484-2.779,9.691v18.516h-2.243h-2.23V84.853z"/>
</g>
</svg>
